<svg xmlns="http://www.w3.org/2000/svg" xmlns:xlink="http://www.w3.org/1999/xlink" width="1366" zoomAndPan="magnify" viewBox="0 0 1024.5 576" height="768" preserveAspectRatio="xMidYMid meet" version="1.0"><defs><g/><clipPath id="dc4aa6ee77"><path d="M 0 0.140625 L 1024 0.140625 L 1024 575.859375 L 0 575.859375 Z M 0 0.140625 " clip-rule="nonzero"/></clipPath></defs><g clip-path="url(#dc4aa6ee77)"><path fill="#ffffff" d="M 0 0.140625 L 1024.5 0.140625 L 1024.5 583.640625 L 0 583.640625 Z M 0 0.140625 " fill-opacity="1" fill-rule="nonzero"/><path fill="#ffffff" d="M 0 0.140625 L 1024.5 0.140625 L 1024.5 576.140625 L 0 576.140625 Z M 0 0.140625 " fill-opacity="1" fill-rule="nonzero"/><path fill="#ffffff" d="M 0 0.140625 L 1024.5 0.140625 L 1024.5 576.140625 L 0 576.140625 Z M 0 0.140625 " fill-opacity="1" fill-rule="nonzero"/></g><g fill="#000000" fill-opacity="1"><g transform="translate(427.105429, 339.715473)"><g><path d="M 39.351562 -71.011719 C 32.980469 -75.773438 25.070312 -74.917969 18.675781 -70.695312 C 11.984375 -66.300781 7.007812 -59.246094 4.050781 -51.851562 C 1.21875 -44.769531 -0.316406 -36.152344 1.804688 -28.683594 C 3.636719 -22.289062 8.617188 -18.820312 14.523438 -18.261719 C 14.523438 -18.039062 14.5 -17.820312 14.476562 -17.601562 C 14.304688 -13.71875 14.328125 -9.519531 15.695312 -5.835938 C 16.648438 -3.171875 18.457031 -0.78125 21.214844 0.121094 C 24.679688 1.269531 28.316406 -0.316406 31.125 -2.34375 C 37.9375 -7.273438 42.109375 -16.039062 44.84375 -23.777344 C 47.796875 -32.148438 49.140625 -41.132812 48.628906 -49.996094 C 48.164062 -57.832031 45.917969 -66.082031 39.351562 -71.011719 Z M 28.953125 -3.074219 C 26.925781 -1.734375 24.4375 -0.535156 21.96875 -1.097656 C 19.820312 -1.5625 18.554688 -3.296875 17.722656 -5.222656 C 16.210938 -8.789062 16.136719 -12.988281 16.28125 -16.796875 C 16.28125 -17.257812 16.308594 -17.722656 16.332031 -18.1875 C 17.429688 -18.1875 18.554688 -18.285156 19.699219 -18.480469 C 28.5625 -19.992188 36.25 -25.902344 41.328125 -33.152344 C 41.523438 -33.394531 40.9375 -33.710938 40.792969 -33.492188 C 36.496094 -27.953125 30.929688 -24.046875 24.4375 -21.480469 C 21.945312 -20.503906 19.164062 -19.796875 16.453125 -19.652344 C 16.769531 -23.363281 17.503906 -27.046875 18.527344 -30.613281 C 18.675781 -31.125 17.601562 -31.589844 17.40625 -31.074219 C 15.964844 -27.367188 15.039062 -23.582031 14.648438 -19.652344 C 10.519531 -19.847656 6.761719 -21.53125 4.636719 -25.851562 C 1.609375 -31.953125 2.417969 -39.789062 4.078125 -46.164062 C 5.882812 -52.925781 9.253906 -59.269531 13.988281 -64.445312 C 15.867188 -66.523438 24.679688 -75.261719 34.910156 -71.183594 C 54.363281 -63.445312 43.574219 -12.351562 28.953125 -3.074219 Z M 28.953125 -3.074219 "/></g></g></g><g fill="#000000" fill-opacity="1"><g transform="translate(479.392174, 339.715473)"><g><path d="M 2.78125 -12.351562 C 2.929688 -11.839844 4.371094 -11.375 4.34375 -12.179688 C 4.34375 -13.402344 4.296875 -14.621094 4.199219 -15.84375 C 4.492188 -18.578125 4.613281 -21.359375 4.957031 -24.070312 C 5.492188 -28.171875 6.078125 -32.222656 7.496094 -36.128906 C 8.667969 -39.351562 10.375 -43.820312 13.476562 -45.648438 C 18.136719 -48.359375 19.015625 -42.0625 19.066406 -38.035156 C 15.402344 -36.203125 12.230469 -33.222656 10.105469 -29.953125 C 8.398438 -27.316406 6.492188 -22.996094 9.007812 -20.210938 C 10.886719 -18.113281 14.160156 -18.40625 16.085938 -20.261719 C 18.722656 -22.875 20.1875 -27.121094 20.96875 -30.660156 C 21.480469 -32.90625 21.726562 -35.273438 21.703125 -37.59375 C 23.726562 -38.425781 25.828125 -38.960938 28.023438 -39.546875 C 28.292969 -39.621094 28 -39.863281 27.828125 -39.886719 C 25.730469 -40.058594 23.628906 -39.765625 21.628906 -39.082031 C 21.53125 -40.277344 21.382812 -41.449219 21.117188 -42.597656 C 20.40625 -45.84375 18.113281 -48.3125 14.621094 -48.1875 C 11.007812 -48.066406 8.863281 -45.015625 7.25 -42.160156 C 4.957031 -38.082031 3.660156 -33.542969 2.976562 -28.929688 C 2.976562 -28.878906 2.953125 -28.804688 2.953125 -28.757812 C 2.710938 -32.417969 2.539062 -36.105469 2.488281 -39.789062 C 2.488281 -40.425781 2.488281 -41.109375 2.488281 -41.742188 C 6.371094 -48.285156 8.59375 -56.292969 10.179688 -63.617188 C 10.984375 -67.253906 11.765625 -71.0625 11.71875 -74.796875 C 11.691406 -76.871094 11.496094 -80.460938 9.179688 -81.414062 C 0.464844 -84.976562 -0.171875 -45.699219 -0.144531 -41.230469 C -0.0976562 -31.785156 -0.0234375 -21.457031 2.78125 -12.351562 Z M 19.042969 -36.007812 C 18.820312 -32.027344 17.722656 -28.074219 15.820312 -24.582031 C 15.109375 -23.289062 13.597656 -20.308594 11.691406 -20.652344 C 9.375 -21.089844 10.667969 -25.851562 11.132812 -27.144531 C 12.425781 -30.710938 15.0625 -33.6875 18.1875 -35.789062 C 18.480469 -35.984375 18.773438 -36.152344 19.042969 -36.324219 C 19.042969 -36.203125 19.042969 -36.105469 19.042969 -36.007812 Z M 5.589844 -74.457031 C 5.882812 -75.503906 6.835938 -79.949219 8.203125 -80.191406 C 11.914062 -80.851562 9.59375 -68.207031 9.300781 -66.570312 C 8.472656 -62.199219 7.300781 -57.878906 5.808594 -53.679688 C 4.859375 -51.070312 3.6875 -48.554688 2.515625 -46.066406 C 2.660156 -53.316406 3.171875 -60.589844 4.199219 -67.765625 C 4.515625 -70.011719 4.929688 -72.257812 5.589844 -74.457031 Z M 5.589844 -74.457031 "/></g></g></g><g fill="#000000" fill-opacity="1"><g transform="translate(505.144982, 339.715473)"><g><path d="M 5.46875 -18.066406 C 8.398438 -18.382812 9.324219 -23.214844 10.253906 -25.4375 C 12.132812 -29.855469 14.355469 -31.003906 17.699219 -31.539062 C 18.039062 -31.613281 17.550781 -32.003906 17.382812 -32.003906 C 13.597656 -31.980469 10.644531 -29.878906 8.910156 -26.558594 C 7.933594 -24.679688 7.347656 -21.578125 5.417969 -20.40625 C 2.929688 -18.871094 2.125 -25.144531 2.074219 -26.707031 C 1.953125 -31.199219 3.125 -37.058594 6.296875 -40.425781 C 6.640625 -40.792969 7.347656 -41.644531 7.886719 -41.742188 C 8.863281 -41.914062 8.835938 -41.207031 8.886719 -40.597656 C 9.007812 -39.621094 8.421875 -38.230469 8.054688 -37.324219 C 7.078125 -34.957031 5.199219 -33.859375 3.6875 -31.980469 C 3.246094 -31.441406 4.273438 -30.878906 4.734375 -31.027344 C 8.277344 -32.050781 14.84375 -40.792969 9.765625 -43.527344 C 7.566406 -44.722656 5.273438 -43.234375 3.808594 -41.574219 C 1.511719 -39.011719 0.511719 -35.445312 -0.0976562 -32.125 C -0.707031 -28.683594 -0.804688 -25.023438 0.660156 -21.75 C 1.488281 -19.847656 3.148438 -17.820312 5.46875 -18.066406 Z M 5.46875 -18.066406 "/></g></g></g><g fill="#000000" fill-opacity="1"><g transform="translate(522.085692, 339.715473)"><g><path d="M 2.585938 -20.53125 C 2.660156 -20.066406 3.441406 -19.554688 3.90625 -19.871094 C 5.101562 -20.675781 5.027344 -22.457031 5.273438 -23.800781 C 5.785156 -26.707031 6.199219 -29.660156 6.980469 -32.539062 C 8.152344 -36.933594 10.15625 -41.402344 13.914062 -44.160156 C 13.988281 -44.234375 13.792969 -44.332031 13.742188 -44.28125 C 10.15625 -42.355469 7.738281 -39.105469 6.394531 -35.300781 C 5.566406 -32.929688 5.054688 -30.488281 4.589844 -28.023438 C 4.492188 -27.464844 4.394531 -26.902344 4.296875 -26.339844 C 4.273438 -28.050781 4.296875 -29.734375 4.394531 -31.441406 C 4.492188 -33.152344 4.636719 -34.882812 4.859375 -36.59375 C 5.125 -38.546875 5.859375 -40.695312 5.542969 -42.621094 C 5.445312 -43.183594 4.246094 -43.964844 3.785156 -43.332031 C 2.878906 -42.011719 2.78125 -40.402344 2.515625 -38.839844 C 2.195312 -36.863281 2 -34.859375 1.855469 -32.832031 C 1.707031 -30.808594 1.660156 -28.78125 1.707031 -26.753906 C 1.734375 -24.558594 2.195312 -22.703125 2.585938 -20.53125 Z M 2.585938 -20.53125 "/></g></g></g><g fill="#000000" fill-opacity="1"><g transform="translate(534.193174, 339.715473)"><g><path d="M 3.660156 13.132812 C 3.757812 13.425781 4.515625 13.574219 4.394531 13.132812 C 3.027344 8.054688 2.636719 2.683594 2.097656 -2.539062 C 1.609375 -7.542969 1.441406 -12.546875 1.511719 -17.578125 C 1.609375 -22.726562 1.929688 -27.855469 2.515625 -32.980469 C 8.667969 -40.449219 12.523438 -47.628906 15.0625 -55.023438 C 20.726562 -71.5 20.675781 -80.632812 18.699219 -82.023438 C 12.328125 -86.5625 5.835938 -62.566406 4.859375 -59.125 C 2.292969 -49.898438 0.535156 -40.425781 -0.367188 -30.878906 C -0.511719 -30.710938 -0.464844 -29.953125 -0.464844 -29.953125 C -0.585938 -28.464844 -0.707031 -26.976562 -0.804688 -25.511719 C -1.195312 -18.894531 -1.269531 -12.253906 -0.730469 -5.640625 C -0.195312 0.902344 1.488281 6.957031 3.660156 13.132812 Z M 5.003906 -48.410156 C 7.054688 -58.027344 9.617188 -68.109375 14.5 -76.75 C 15.039062 -77.726562 15.625 -79.238281 16.476562 -79.921875 C 18.136719 -81.265625 18.601562 -79.335938 18.796875 -77.875 C 19.164062 -75.015625 18.675781 -72.136719 18.066406 -69.351562 C 17.113281 -65.03125 15.988281 -60.734375 14.574219 -56.5625 C 11.839844 -48.480469 8.054688 -40.792969 2.660156 -34.25 C 3.222656 -39.011719 4.003906 -43.722656 5.003906 -48.410156 Z M 5.003906 -48.410156 "/></g></g></g><g fill="#000000" fill-opacity="1"><g transform="translate(544.079323, 339.715473)"><g><path d="M 16.113281 11.765625 C 19.066406 7.640625 20.308594 2.660156 20.945312 -2.269531 C 21.726562 -8.226562 21.773438 -14.304688 21.164062 -20.285156 C 21.019531 -21.605469 20.871094 -22.945312 20.699219 -24.289062 C 23.558594 -27.367188 26.78125 -30.097656 30.390625 -32.441406 C 30.539062 -32.515625 30.292969 -32.6875 30.195312 -32.613281 C 26.65625 -30.660156 23.433594 -28.171875 20.554688 -25.339844 C 19.96875 -29 19.089844 -32.6875 17.332031 -35.886719 C 16.453125 -37.472656 14.964844 -39.253906 12.914062 -38.667969 C 10.886719 -38.082031 9.789062 -34.933594 8.933594 -33.296875 C 8.347656 -32.175781 7.789062 -31.050781 7.128906 -30 C 6.421875 -28.855469 5.027344 -26.609375 3.636719 -26.242188 C -0.21875 -25.167969 1.734375 -34.714844 2.125 -36.03125 C 2.441406 -37.007812 0.339844 -37.863281 -0.0234375 -36.910156 C -1.21875 -33.640625 -2.171875 -27.78125 0.902344 -25.167969 C 3.980469 -22.582031 7.25 -25.851562 8.933594 -28.367188 C 10.03125 -30 10.863281 -31.785156 11.789062 -33.492188 C 12.230469 -34.324219 12.839844 -35.835938 13.574219 -36.445312 C 14.890625 -37.519531 15.648438 -34.785156 16.085938 -33.761719 C 17.429688 -30.464844 18.136719 -26.851562 18.554688 -23.265625 C 15.648438 -20.042969 13.15625 -16.453125 11.15625 -12.644531 C 8.886719 -8.324219 7.203125 -3.734375 6.078125 1 C 5.152344 4.882812 3.199219 10.519531 6.273438 13.890625 C 9.570312 17.453125 13.792969 15.011719 16.113281 11.765625 Z M 9.984375 13.914062 C 7.691406 14.207031 7.03125 11.449219 6.882812 9.886719 C 6.664062 7.738281 6.910156 5.445312 7.226562 3.320312 C 7.910156 -1.21875 9.351562 -5.6875 11.230469 -9.886719 C 13.207031 -14.28125 15.695312 -18.359375 18.699219 -21.996094 C 18.820312 -20.796875 18.917969 -19.601562 19.015625 -18.40625 C 19.382812 -13.085938 19.261719 -7.714844 18.554688 -2.417969 C 17.871094 2.464844 16.503906 7.714844 13.230469 11.570312 C 12.425781 12.523438 11.300781 13.742188 9.984375 13.914062 Z M 9.984375 13.914062 "/></g></g></g><g fill="#000000" fill-opacity="1"><g transform="translate(574.201565, 339.715473)"><g><path d="M 3.855469 -21.117188 C 6.152344 -22.09375 6.664062 -26.804688 7.300781 -28.855469 C 7.789062 -30.417969 8.375 -31.980469 9.082031 -33.46875 C 9.519531 -34.347656 10.082031 -35.714844 10.839844 -36.347656 C 12.132812 -37.449219 12.207031 -36.835938 12.179688 -35.519531 C 12.035156 -31.125 11.300781 -26.730469 11.644531 -22.289062 C 11.789062 -20.210938 11.839844 -15.746094 14.792969 -15.550781 C 17.257812 -15.402344 17.0625 -20.140625 17.308594 -21.824219 C 17.992188 -26.65625 20.042969 -30.367188 24.949219 -31.882812 C 25.265625 -32.003906 24.898438 -32.296875 24.679688 -32.273438 C 18.261719 -31.003906 16.746094 -24.582031 15.550781 -19.113281 C 15.453125 -18.601562 15.304688 -18.113281 15.160156 -17.625 C 15.136719 -16.917969 15.0625 -16.917969 14.890625 -17.648438 C 14.425781 -18.429688 14.402344 -19.96875 14.304688 -20.871094 C 14.085938 -22.921875 14.109375 -24.996094 14.207031 -27.046875 C 14.304688 -29.097656 14.523438 -31.171875 14.648438 -33.222656 C 14.71875 -34.542969 15.039062 -36.082031 14.402344 -37.300781 C 13.695312 -38.742188 11.960938 -39.253906 10.910156 -37.9375 C 10.105469 -36.933594 9.472656 -35.445312 8.835938 -34.296875 C 8.128906 -32.957031 7.566406 -31.539062 7.03125 -30.125 C 6.46875 -28.683594 5.859375 -27.269531 5.222656 -25.851562 C 4.882812 -25.09375 4.566406 -24.535156 4.003906 -23.3125 C 3.6875 -22.75 3.199219 -22.140625 2.710938 -22.386719 C 2.5625 -22.875 2.464844 -23.363281 2.367188 -23.851562 C 1.734375 -27.855469 2.320312 -32.078125 3.613281 -35.886719 C 3.980469 -36.984375 1.539062 -37.960938 1.171875 -36.863281 C -0.171875 -33.003906 -0.976562 -28.464844 -0.195312 -24.386719 C 0.144531 -22.628906 1.734375 -20.210938 3.855469 -21.117188 Z M 3.855469 -21.117188 "/></g></g></g></svg>